<?xml version="1.0" encoding="UTF-8"?>
<!DOCTYPE svg PUBLIC "-//W3C//DTD SVG 1.1//EN" "http://www.w3.org/Graphics/SVG/1.1/DTD/svg11.dtd">

<svg 
xmlns="http://www.w3.org/2000/svg" 
version="1.1" 
fill="none"
		height={size || height}
		viewBox="0 0 32 32"
		width={size || width}
		{...props}
style="shape-rendering:geometricPrecision; text-rendering:geometricPrecision; image-rendering:optimizeQuality; fill-rule:evenodd; clip-rule:evenodd" xmlns:xlink="http://www.w3.org/1999/xlink">
<g><path style="opacity:0.979" fill="#2c2c2d" d="M 1639.5,205.5 C 1657.5,205.333 1675.5,205.5 1693.5,206C 1694.82,224.785 1694.82,243.618 1693.5,262.5C 1693.72,263.938 1694.22,265.271 1695,266.5C 1706.75,267.488 1718.59,267.821 1730.5,267.5C 1731.77,280.186 1731.77,292.853 1730.5,305.5C 1729.97,306.192 1729.31,306.692 1728.5,307C 1716.92,307.178 1705.42,307.678 1694,308.5C 1693.83,326.333 1693.67,344.167 1693.5,362C 1693.36,381.216 1693.86,400.383 1695,419.5C 1696.44,423.275 1698.94,426.108 1702.5,428C 1711.72,429.896 1721.05,431.063 1730.5,431.5C 1731.81,444.467 1731.81,457.467 1730.5,470.5C 1712.24,473.294 1693.91,473.794 1675.5,472C 1652.56,467.639 1640.06,453.806 1638,430.5C 1637.67,389.833 1637.33,349.167 1637,308.5C 1627.91,307.681 1618.74,307.181 1609.5,307C 1609,306.5 1608.5,306 1608,305.5C 1607.29,292.815 1607.46,280.148 1608.5,267.5C 1618.08,267.818 1627.58,267.485 1637,266.5C 1638.15,246.183 1638.99,225.85 1639.5,205.5 Z"/></g>
<g><path style="opacity:0.833" fill="#2a2a2b" d="M 1763.5,211.5 C 1767.5,211.5 1771.5,211.5 1775.5,211.5C 1776.05,216.371 1777.22,221.038 1779,225.5C 1780.1,221.145 1781.27,216.812 1782.5,212.5C 1786.11,211.511 1789.77,211.177 1793.5,211.5C 1793.5,221.833 1793.5,232.167 1793.5,242.5C 1791.21,242.756 1789.04,242.423 1787,241.5C 1786.93,225.866 1785.26,225.866 1782,241.5C 1780.27,242.576 1778.44,242.743 1776.5,242C 1774.32,237.804 1772.82,233.304 1772,228.5C 1771.67,232.833 1771.33,237.167 1771,241.5C 1768.67,242.833 1766.33,242.833 1764,241.5C 1763.5,231.506 1763.33,221.506 1763.5,211.5 Z"/></g>
<g><path style="opacity:0.861" fill="#2a2a2b" d="M 1737.5,211.5 C 1745.83,211.5 1754.17,211.5 1762.5,211.5C 1762.5,213.833 1762.5,216.167 1762.5,218.5C 1759.83,218.5 1757.17,218.5 1754.5,218.5C 1754.67,226.174 1754.5,233.841 1754,241.5C 1751.67,242.833 1749.33,242.833 1747,241.5C 1746.5,233.841 1746.33,226.174 1746.5,218.5C 1743.5,218.5 1740.5,218.5 1737.5,218.5C 1737.5,216.167 1737.5,213.833 1737.5,211.5 Z"/></g>
<g><path style="opacity:0.967" fill="#d6a911" d="M 65.5,234.5 C 79.1996,234.212 92.5329,236.045 105.5,240C 106.874,242.583 108.374,245.083 110,247.5C 125.128,287.718 139.962,328.051 154.5,368.5C 144.958,377.877 135.292,387.044 125.5,396C 123.559,396.743 121.726,396.576 120,395.5C 104.878,350.798 89.378,306.298 73.5,262C 70.1151,253.015 67.4484,243.848 65.5,234.5 Z"/></g>
<g><path style="opacity:0.951" fill="#d6a911" d="M 137.5,245.5 C 147.379,244.969 157.046,246.136 166.5,249C 176.991,275.64 186.991,302.473 196.5,329.5C 192.069,334.106 187.736,338.939 183.5,344C 181.167,345.667 178.833,347.333 176.5,349C 173.783,350.033 171.949,349.2 171,346.5C 159.796,314.553 148.796,282.553 138,250.5C 137.506,248.866 137.34,247.199 137.5,245.5 Z"/></g>
<g><path style="opacity:0.905" fill="#d6a910" d="M 197.5,253.5 C 202.869,252.98 207.869,253.98 212.5,256.5C 219.135,271.582 224.635,286.915 229,302.5C 226.205,304.293 223.705,306.46 221.5,309C 219.975,310.009 218.308,310.509 216.5,310.5C 210.685,291.293 204.352,272.293 197.5,253.5 Z"/></g>
<g><path style="opacity:0.975" fill="#2c2c2d" d="M 549.5,261.5 C 589.755,258.513 620.088,274.18 640.5,308.5C 651.355,331.63 655.522,355.963 653,381.5C 652.228,382.849 651.061,383.682 649.5,384C 606.168,384.5 562.835,384.667 519.5,384.5C 519.5,402.336 526.167,417.17 539.5,429C 555.211,437.54 571.878,439.873 589.5,436C 608.059,431.977 626.059,426.477 643.5,419.5C 642.546,435.227 639.88,450.56 635.5,465.5C 607.992,475.072 579.659,478.905 550.5,477C 498.027,468.47 469.193,437.637 464,384.5C 460.66,353.848 466.994,325.515 483,299.5C 500.223,278.14 522.39,265.473 549.5,261.5 Z M 554.5,300.5 C 569.563,298.015 581.729,302.682 591,314.5C 595.923,323.688 598.757,333.521 599.5,344C 599.241,345.261 598.574,346.261 597.5,347C 571.928,347.828 546.428,347.661 521,346.5C 520.771,329.174 527.438,315.174 541,304.5C 545.433,302.481 549.933,301.148 554.5,300.5 Z"/></g>
<g><path style="opacity:0.976" fill="#2c2c2d" d="M 756.5,261.5 C 796.288,258.901 826.121,274.568 846,308.5C 857.832,331.803 862.165,356.469 859,382.5C 857.933,383.191 856.766,383.691 855.5,384C 812.496,384.167 769.496,384.667 726.5,385.5C 725.746,413.582 739.079,430.748 766.5,437C 780.757,438.382 794.757,437.049 808.5,433C 822.216,429.373 835.55,424.873 848.5,419.5C 847.677,435.104 845.343,450.437 841.5,465.5C 810.005,476.542 777.672,479.709 744.5,475C 708.791,466.955 685.624,445.455 675,410.5C 663.681,373.363 667.347,337.696 686,303.5C 703.399,279.269 726.899,265.269 756.5,261.5 Z M 758.5,300.5 C 777.695,297.346 791.528,304.346 800,321.5C 802.676,329.452 804.176,337.452 804.5,345.5C 791.655,346.815 778.655,347.481 765.5,347.5C 752.833,347.333 740.167,347.167 727.5,347C 725.826,323.222 736.159,307.722 758.5,300.5 Z"/></g>
<g><path style="opacity:0.979" fill="#2c2c2d" d="M 983.5,261.5 C 1001.84,260.388 1019.18,263.888 1035.5,272C 1045.6,270.98 1055.6,268.98 1065.5,266C 1088.79,260.752 1112.12,260.418 1135.5,265C 1161.95,272.461 1176.45,289.961 1179,317.5C 1179.5,368.499 1179.67,419.499 1179.5,470.5C 1161.59,470.174 1143.76,470.508 1126,471.5C 1125.33,470.833 1124.67,470.167 1124,469.5C 1123.67,419.833 1123.33,370.167 1123,320.5C 1121.19,312.358 1116.69,306.191 1109.5,302C 1093.48,299.58 1078.98,303.08 1066,312.5C 1065.59,365.169 1065.09,417.835 1064.5,470.5C 1045.92,470.826 1027.42,470.493 1009,469.5C 1008.5,433.665 1008.66,397.832 1009.5,362C 1009.59,347.469 1009.09,332.969 1008,318.5C 1007.27,316.129 1006.43,313.795 1005.5,311.5C 1003.27,309.393 1001.27,307.06 999.5,304.5C 995.394,302.042 990.894,301.042 986,301.5C 973.242,301.018 961.909,304.684 952,312.5C 950.91,364.827 950.244,417.161 950,469.5C 931.667,470.833 913.333,470.833 895,469.5C 894.333,407.5 894.333,345.5 895,283.5C 923.116,270.262 952.616,262.929 983.5,261.5 Z"/></g>
<g><path style="opacity:0.979" fill="#2c2c2d" d="M 1297.5,261.5 C 1333.31,258.169 1362.14,270.502 1384,298.5C 1408.27,339.464 1410.94,381.798 1392,425.5C 1376.94,455.855 1352.44,473.022 1318.5,477C 1267.54,479.321 1234.04,456.488 1218,408.5C 1207.91,371.013 1212.25,335.347 1231,301.5C 1247.69,279.073 1269.85,265.74 1297.5,261.5 Z M 1301.5,300.5 C 1308.99,300.058 1316.33,300.892 1323.5,303C 1339.4,314.976 1347.24,331.143 1347,351.5C 1348.89,372.9 1346.89,393.9 1341,414.5C 1332.89,433.139 1318.73,440.639 1298.5,437C 1286.46,433.959 1278.62,426.459 1275,414.5C 1272.57,406.53 1270.57,398.53 1269,390.5C 1266.21,366.417 1268.87,343.084 1277,320.5C 1282.29,310.129 1290.46,303.462 1301.5,300.5 Z"/></g>
<g><path style="opacity:0.976" fill="#2c2c2d" d="M 1505.5,261.5 C 1523.78,260.66 1541.78,262.494 1559.5,267C 1569.85,270.893 1580.35,274.393 1591,277.5C 1591.66,291.005 1590.99,304.338 1589,317.5C 1572.31,310.704 1555.15,305.537 1537.5,302C 1525.83,301.333 1514.17,301.333 1502.5,302C 1489.24,307.016 1485.08,316.182 1490,329.5C 1497.01,335.42 1504.84,339.92 1513.5,343C 1534.32,347.381 1553.98,354.715 1572.5,365C 1578.1,370.318 1583.6,375.818 1589,381.5C 1599.19,403.31 1598.85,424.977 1588,446.5C 1583.17,452.667 1577.67,458.167 1571.5,463C 1550.85,474.198 1528.68,479.031 1505,477.5C 1479.81,476.732 1454.97,472.899 1430.5,466C 1428.58,465.64 1426.91,464.806 1425.5,463.5C 1424.22,448.479 1424.22,433.479 1425.5,418.5C 1446.24,427.604 1467.9,433.77 1490.5,437C 1501.55,437.879 1512.55,437.546 1523.5,436C 1538.16,431.169 1542.33,421.669 1536,407.5C 1530.15,401.992 1523.32,398.158 1515.5,396C 1503.81,391.213 1491.81,387.213 1479.5,384C 1464.47,378.712 1451.64,370.212 1441,358.5C 1439.19,354.204 1436.85,350.204 1434,346.5C 1423.34,316.137 1431.51,292.637 1458.5,276C 1473.25,267.901 1488.91,263.068 1505.5,261.5 Z"/></g>
<g><path style="opacity:0.978" fill="#2c2c2d" d="M 281.5,267.5 C 299.743,267.174 317.91,267.508 336,268.5C 337.52,273.594 339.187,278.594 341,283.5C 349.406,323.787 358.74,363.787 369,403.5C 371,404.833 373,404.833 375,403.5C 379.255,385.557 383.255,367.557 387,349.5C 393.845,322.452 400.845,295.452 408,268.5C 426.667,267.167 445.333,267.167 464,268.5C 464.667,270.833 464.667,273.167 464,275.5C 444.872,337.673 426.206,400.006 408,462.5C 406.36,464.579 405.194,466.912 404.5,469.5C 381.935,470.826 359.435,470.826 337,469.5C 319.16,406.262 300.827,343.262 282,280.5C 280.41,276.157 280.243,271.824 281.5,267.5 Z"/></g>
<g><path style="opacity:0.902" fill="#d7a910" d="M 240.5,336.5 C 241.496,336.414 242.329,336.748 243,337.5C 247.707,349.831 251.874,362.331 255.5,375C 254.206,379.639 251.373,383.139 247,385.5C 238.443,373.165 233.443,359.499 232,344.5C 234.729,341.601 237.562,338.934 240.5,336.5 Z"/></g>
<g><path style="opacity:0.944" fill="#d6a911" d="M 207.5,367.5 C 208.822,367.33 209.989,367.663 211,368.5C 215.47,380.745 219.637,393.078 223.5,405.5C 221.16,410.028 218.16,414.195 214.5,418C 211.203,420.295 208.203,422.962 205.5,426C 203.783,427.559 201.783,428.392 199.5,428.5C 195.007,415.515 190.673,402.515 186.5,389.5C 186.577,387.701 187.077,386.034 188,384.5C 194.422,378.566 200.922,372.9 207.5,367.5 Z"/></g>
<g><path style="opacity:0.952" fill="#d6a911" d="M 165.5,406.5 C 166.822,406.33 167.989,406.663 169,407.5C 175.967,420.085 180.633,433.419 183,447.5C 172.912,458.592 161.912,468.592 150,477.5C 149.055,477.095 148.388,476.428 148,475.5C 143.784,462.349 139.284,449.349 134.5,436.5C 140.264,430.563 145.931,424.396 151.5,418C 156.647,414.68 161.314,410.847 165.5,406.5 Z"/></g>
<g><path style="opacity:0.061" fill="#000000" d="M 909.5,559.5 C 924.744,557.646 938.744,560.813 951.5,569C 961.505,579.205 971.672,589.038 982,598.5C 984.596,602.03 986.929,605.697 989,609.5C 1002.64,594.761 1019.48,585.927 1039.5,583C 1052.13,581.485 1064.8,581.152 1077.5,582C 1085.6,582.819 1093.44,584.653 1101,587.5C 1117.64,562.837 1140.47,554.337 1169.5,562C 1173.29,563.393 1176.95,565.059 1180.5,567C 1190.37,576.04 1200.04,585.206 1209.5,594.5C 1240.19,580.229 1271.86,577.729 1304.5,587C 1314.01,590.089 1323.01,594.256 1331.5,599.5C 1337.09,593.87 1343.75,590.037 1351.5,588C 1377.99,582.792 1404.65,581.459 1431.5,584C 1439.36,585.684 1446.53,588.851 1453,593.5C 1491.06,576.71 1528.56,577.877 1565.5,597C 1594.65,616.122 1609.65,643.289 1610.5,678.5C 1608.18,701.799 1603.01,724.466 1595,746.5C 1585.26,764.56 1570.76,777.394 1551.5,785C 1511.22,799.714 1473.22,795.381 1437.5,772C 1429.64,765.434 1422.8,757.934 1417,749.5C 1412.9,771.633 1399.74,784.466 1377.5,788C 1360.08,790.944 1344.75,786.777 1331.5,775.5C 1299.2,793.975 1265.03,798.309 1229,788.5C 1222.24,786.804 1215.91,784.137 1210,780.5C 1204.67,785.059 1198.5,787.892 1191.5,789C 1167.75,793.543 1145.75,789.377 1125.5,776.5C 1097.71,792.352 1068.04,797.185 1036.5,791C 1018.36,787.681 1002.86,779.514 990,766.5C 982.24,780.975 970.074,788.808 953.5,790C 932.169,792.802 912.502,788.469 894.5,777C 883.886,768.376 876.386,757.542 872,744.5C 865.627,777.841 845.461,792.341 811.5,788C 807.154,787.373 802.988,786.206 799,784.5C 793.452,787.012 787.618,788.512 781.5,789C 760.307,790.15 739.141,791.65 718,793.5C 694.539,793.72 672.872,787.72 653,775.5C 643.014,785.149 631.014,789.483 617,788.5C 610.363,788.708 603.863,787.875 597.5,786C 589.665,782.329 581.832,778.829 574,775.5C 566.168,778.829 558.335,782.329 550.5,786C 530.073,791.913 511.407,788.579 494.5,776C 491.155,773.759 487.489,773.092 483.5,774C 464.59,788.98 443.59,792.646 420.5,785C 418.167,783.833 415.833,782.667 413.5,781.5C 377.423,797.634 341.423,797.468 305.5,781C 286.017,770.221 274.851,753.721 272,731.5C 271.561,719.83 271.727,708.164 272.5,696.5C 259.357,615.481 293.69,577.314 375.5,582C 387.92,583.563 399.753,587.063 411,592.5C 421.618,586.303 433.118,583.136 445.5,583C 459.67,582.586 473.836,582.086 488,581.5C 504.103,582.184 520.103,583.851 536,586.5C 549.978,584.55 563.978,582.884 578,581.5C 603.067,581.627 624.901,589.96 643.5,606.5C 669.389,586.524 698.722,578.357 731.5,582C 746.974,583.517 762.474,584.684 778,585.5C 785.343,585.9 792.343,587.567 799,590.5C 806.506,587.398 814.34,585.564 822.5,585C 839.453,583.216 856.453,582.216 873.5,582C 882.567,569.642 894.567,562.142 909.5,559.5 Z M 972.5,675.5 C 973.117,675.611 973.617,675.944 974,676.5C 975.453,683.823 975.619,691.156 974.5,698.5C 973.039,694.464 971.372,690.464 969.5,686.5C 971.614,683.264 972.614,679.597 972.5,675.5 Z"/></g>
<g><path style="opacity:1" fill="#121119" d="M 924.5,584.5 C 926.167,584.5 927.833,584.5 929.5,584.5C 929.5,594.167 929.5,603.833 929.5,613.5C 939.167,613.5 948.833,613.5 958.5,613.5C 958.5,619.833 958.5,626.167 958.5,632.5C 948.833,632.5 939.167,632.5 929.5,632.5C 929.035,659.551 929.535,686.551 931,713.5C 932.068,718.235 934.901,721.402 939.5,723C 946.117,724.557 952.783,724.724 959.5,723.5C 959.812,730.422 959.479,737.256 958.5,744C 943.447,746.455 929.447,743.789 916.5,736C 910.308,729.446 906.808,721.613 906,712.5C 905.5,685.835 905.333,659.169 905.5,632.5C 899.167,632.5 892.833,632.5 886.5,632.5C 886.5,626.167 886.5,619.833 886.5,613.5C 892.833,613.5 899.167,613.5 905.5,613.5C 905.5,605.167 905.5,596.833 905.5,588.5C 912.056,587.657 918.389,586.323 924.5,584.5 Z"/></g>
<g><path style="opacity:0.999" fill="#121119" d="M 1156.5,584.5 C 1158.17,584.5 1159.83,584.5 1161.5,584.5C 1161.5,593.833 1161.5,603.167 1161.5,612.5C 1170.84,612.334 1180.17,612.5 1189.5,613C 1190.48,619.41 1190.81,625.91 1190.5,632.5C 1180.83,632.5 1171.17,632.5 1161.5,632.5C 1161.04,659.876 1161.54,687.209 1163,714.5C 1166.99,721.998 1173.32,725.331 1182,724.5C 1184.87,724.316 1187.7,723.982 1190.5,723.5C 1190.5,730.5 1190.5,737.5 1190.5,744.5C 1178.15,745.51 1166.15,744.01 1154.5,740C 1144.63,734.436 1139.13,725.936 1138,714.5C 1137.5,687.169 1137.33,659.835 1137.5,632.5C 1130.83,632.5 1124.17,632.5 1117.5,632.5C 1117.33,626.158 1117.5,619.825 1118,613.5C 1124.41,612.522 1130.91,612.189 1137.5,612.5C 1137.5,604.5 1137.5,596.5 1137.5,588.5C 1144.02,587.474 1150.35,586.141 1156.5,584.5 Z"/></g>
<g><path style="opacity:0.914" fill="#d7a911" d="M 1587.5,588.5 C 1597.51,588.334 1607.51,588.5 1617.5,589C 1619.29,589.785 1620.79,590.951 1622,592.5C 1632.53,621.09 1642.86,649.757 1653,678.5C 1653.78,680.286 1654.95,681.786 1656.5,683C 1678.67,683.405 1700.84,683.905 1723,684.5C 1728.83,684.167 1734.67,683.833 1740.5,683.5C 1748.83,664.167 1757.17,644.833 1765.5,625.5C 1729.16,624.462 1692.82,623.296 1656.5,622C 1695.16,620.833 1733.83,620 1772.5,619.5C 1772.66,621.527 1772.5,623.527 1772,625.5C 1763.36,647.763 1754.52,669.93 1745.5,692C 1715.83,692.93 1686.16,693.93 1656.5,695C 1654.5,699.333 1652.5,703.667 1650.5,708C 1679.79,710.38 1709.12,712.547 1738.5,714.5C 1705.52,717.073 1672.52,718.906 1639.5,720C 1636.8,719.135 1635.46,717.301 1635.5,714.5C 1637.69,705.751 1640.19,697.085 1643,688.5C 1643.67,686.833 1643.67,685.167 1643,683.5C 1632.33,656.833 1621.67,630.167 1611,603.5C 1602.87,603.97 1594.71,603.47 1586.5,602C 1582.37,597.119 1582.7,592.619 1587.5,588.5 Z"/></g>
<g><path style="opacity:1" fill="#121119" d="M 349.5,610.5 C 365.111,608.712 379.778,611.545 393.5,619C 403.697,626.553 409.363,636.719 410.5,649.5C 402.493,649.666 394.493,649.5 386.5,649C 383.691,639.727 377.357,634.394 367.5,633C 357.399,631.493 347.732,632.826 338.5,637C 331.977,642.004 329.81,648.504 332,656.5C 335.074,662.291 339.907,665.457 346.5,666C 359.302,666.702 371.969,668.369 384.5,671C 411.764,680.431 419.931,698.598 409,725.5C 400.069,737.053 388.236,743.553 373.5,745C 354.481,748.369 336.814,745.035 320.5,735C 311.059,726.617 306.059,716.117 305.5,703.5C 313.5,703.5 321.5,703.5 329.5,703.5C 331.551,715.226 338.551,722.059 350.5,724C 362.654,726.108 373.987,724.108 384.5,718C 393.601,704.52 390.267,695.52 374.5,691C 363.496,689.727 352.496,688.393 341.5,687C 312.804,680.969 302.304,663.803 310,635.5C 314.95,625.885 322.45,619.051 332.5,615C 338.175,613 343.842,611.5 349.5,610.5 Z"/></g>
<g><path style="opacity:1" fill="#121119" d="M 430.5,610.5 C 438.833,610.5 447.167,610.5 455.5,610.5C 455.334,616.176 455.501,621.843 456,627.5C 465.349,615.701 477.682,610.035 493,610.5C 511.495,609.829 525.662,617.162 535.5,632.5C 545.083,618.617 558.417,611.284 575.5,610.5C 605.348,611.165 622.848,626.165 628,655.5C 628.5,684.831 628.667,714.165 628.5,743.5C 620.5,743.5 612.5,743.5 604.5,743.5C 604.96,713.458 604.46,683.458 603,653.5C 599.792,639.882 591.126,633.215 577,633.5C 560.578,633.931 549.912,641.931 545,657.5C 543.542,686.124 543.042,714.791 543.5,743.5C 535.5,743.5 527.5,743.5 519.5,743.5C 519.667,716.498 519.5,689.498 519,662.5C 515.149,637.337 500.982,628.503 476.5,636C 466.165,640.167 459.665,647.667 457,658.5C 455.533,686.783 455.033,715.116 455.5,743.5C 447.167,743.5 438.833,743.5 430.5,743.5C 430.5,699.167 430.5,654.833 430.5,610.5 Z"/></g>
<g><path style="opacity:1" fill="#121119" d="M 712.5,610.5 C 728.464,609.721 743.13,613.554 756.5,622C 759,624.5 761.5,627 764,629.5C 764.499,623.843 764.666,618.176 764.5,612.5C 772.5,612.5 780.5,612.5 788.5,612.5C 788.5,656.167 788.5,699.833 788.5,743.5C 780.5,743.5 772.5,743.5 764.5,743.5C 764.666,737.824 764.499,732.157 764,726.5C 755.172,737.355 743.672,743.521 729.5,745C 703.342,748.837 681.175,741.337 663,722.5C 643.991,695.692 642.657,668.025 659,639.5C 672.538,621.816 690.371,612.149 712.5,610.5 Z"/></g>
<g><path style="opacity:0.999" fill="#121119" d="M 862.5,610.5 C 869.956,610.09 877.289,610.757 884.5,612.5C 885.497,619.468 885.83,626.468 885.5,633.5C 863.561,628.559 847.394,635.892 837,655.5C 835.592,659.057 834.592,662.724 834,666.5C 833.5,692.165 833.333,717.831 833.5,743.5C 825.5,743.5 817.5,743.5 809.5,743.5C 809.5,700.167 809.5,656.833 809.5,613.5C 817.5,613.5 825.5,613.5 833.5,613.5C 833.334,618.179 833.501,622.845 834,627.5C 841.533,618.325 851.033,612.659 862.5,610.5 Z"/></g>
<g><path style="opacity:1" fill="#121119" d="M 1051.5,610.5 C 1067.38,608.933 1082.38,611.766 1096.5,619C 1106.96,626.42 1112.29,636.587 1112.5,649.5C 1104.83,649.666 1097.16,649.5 1089.5,649C 1086.41,639.247 1079.74,633.914 1069.5,633C 1059.73,631.525 1050.4,632.858 1041.5,637C 1034.86,641.916 1032.7,648.416 1035,656.5C 1038.01,662.268 1042.85,665.434 1049.5,666C 1063.42,666.371 1077.09,668.371 1090.5,672C 1111.83,679.938 1120,695.104 1115,717.5C 1111.99,726.376 1106.49,733.209 1098.5,738C 1082.56,745.122 1065.89,747.456 1048.5,745C 1029.6,742.977 1016.76,733.144 1010,715.5C 1008.84,711.582 1008.34,707.582 1008.5,703.5C 1016.5,703.5 1024.5,703.5 1032.5,703.5C 1034.31,715.48 1041.31,722.313 1053.5,724C 1063.45,725.355 1073.11,724.355 1082.5,721C 1093.92,713.722 1095.25,705.056 1086.5,695C 1083.38,693.107 1080.05,691.774 1076.5,691C 1067.87,689.701 1059.21,688.701 1050.5,688C 1014.49,682.697 1002.99,663.197 1016,629.5C 1025.54,618.812 1037.38,612.479 1051.5,610.5 Z"/></g>
<g><path style="opacity:1" fill="#121119" d="M 1260.5,610.5 C 1285.51,609.429 1306.34,618.096 1323,636.5C 1341,664.508 1341,692.508 1323,720.5C 1307.65,737.422 1288.48,746.089 1265.5,746.5C 1222.13,743.96 1198.79,721.126 1195.5,678C 1196.26,645.24 1212.26,623.906 1243.5,614C 1249.26,612.614 1254.93,611.448 1260.5,610.5 Z"/></g>
<g><path style="opacity:0.999" fill="#121119" d="M 1408.5,610.5 C 1416.22,610.238 1423.89,610.738 1431.5,612C 1432.48,619.079 1432.81,626.245 1432.5,633.5C 1410.02,628.658 1393.52,636.325 1383,656.5C 1381.53,660.723 1380.53,665.057 1380,669.5C 1379.5,694.164 1379.33,718.831 1379.5,743.5C 1371.5,743.5 1363.5,743.5 1355.5,743.5C 1355.5,700.167 1355.5,656.833 1355.5,613.5C 1363.5,613.5 1371.5,613.5 1379.5,613.5C 1379.33,618.511 1379.5,623.511 1380,628.5C 1387.4,619.056 1396.9,613.056 1408.5,610.5 Z"/></g>
<g><path style="opacity:0.999" fill="#121119" d="M 1494.5,611.5 C 1520.62,608.158 1542.46,616.158 1560,635.5C 1570.39,649.461 1574.73,665.128 1573,682.5C 1536.39,684.49 1499.55,685.157 1462.5,684.5C 1465.17,706.661 1477.51,719.828 1499.5,724C 1518.72,726.387 1533.72,719.721 1544.5,704C 1552.83,703.333 1561.17,703.333 1569.5,704C 1555.89,733.821 1532.55,747.821 1499.5,746C 1464.88,741.376 1444.71,721.876 1439,687.5C 1436.31,646.397 1454.81,621.064 1494.5,611.5 Z"/></g>
<g><path style="opacity:0.087" fill="#000000" d="M 708.5,632.5 C 726.939,630.366 742.439,636.033 755,649.5C 767.941,669.963 767.275,689.963 753,709.5C 732.229,727.511 710.395,729.011 687.5,714C 673.242,699.472 668.742,682.306 674,662.5C 679.838,645.82 691.338,635.82 708.5,632.5 Z"/></g>
<g><path style="opacity:0.085" fill="#000000" d="M 1258.5,632.5 C 1278.53,630.548 1294.37,637.548 1306,653.5C 1315.02,671.552 1314.36,689.218 1304,706.5C 1284.31,726.637 1262.14,729.803 1237.5,716C 1221.09,701.533 1215.92,683.7 1222,662.5C 1228.62,645.708 1240.79,635.708 1258.5,632.5 Z"/></g>
<g><path style="opacity:0.151" fill="#000000" d="M 1498.5,632.5 C 1514.66,630.656 1528.49,635.322 1540,646.5C 1544.35,651.715 1546.85,657.715 1547.5,664.5C 1519.5,664.667 1491.5,664.5 1463.5,664C 1468.42,645.915 1480.08,635.415 1498.5,632.5 Z"/></g>
<g><path style="opacity:0.954" fill="#d7aa11" d="M 1652.5,720.5 C 1663.79,719.468 1670.46,724.468 1672.5,735.5C 1671.58,744.923 1666.41,750.256 1657,751.5C 1642.23,747.85 1638.23,739.183 1645,725.5C 1647.43,723.548 1649.93,721.881 1652.5,720.5 Z"/></g>
<g><path style="opacity:0.954" fill="#d7aa11" d="M 1712.5,720.5 C 1729.33,720.483 1735.16,728.483 1730,744.5C 1721.8,752.829 1713.46,753.162 1705,745.5C 1699.13,734.625 1701.63,726.292 1712.5,720.5 Z"/></g>
</svg>
